<svg xmlns="http://www.w3.org/2000/svg" viewBox="0 0 1000 420" width="1000" height="420" role="img" aria-label="4 · ArcGIS Enterprise Integration Flow">
<rect x="0" y="0" width="1000" height="420" fill="#f6f8fa"/>
<defs>
  <marker id="arrow" viewBox="0 0 10 10" refX="9" refY="5" markerWidth="8" markerHeight="8" orient="auto-start-reverse">
    <path d="M0,0 L10,5 L0,10 z" fill="#5a6b78"/>
  </marker>
  <marker id="arrowBlue" viewBox="0 0 10 10" refX="9" refY="5" markerWidth="8" markerHeight="8" orient="auto-start-reverse">
    <path d="M0,0 L10,5 L0,10 z" fill="#0079c1"/>
  </marker>
  <marker id="arrowGreen" viewBox="0 0 10 10" refX="9" refY="5" markerWidth="8" markerHeight="8" orient="auto-start-reverse">
    <path d="M0,0 L10,5 L0,10 z" fill="#2e8b57"/>
  </marker>
</defs>
<text x="24" y="34" font-family="-apple-system,Segoe UI,Helvetica,Arial,sans-serif" font-size="20" font-weight="700" fill="#14212b">4 · ArcGIS Enterprise Integration Flow</text>
<g>
<rect x="40" y="60" width="200" height="80" rx="12" fill="#eaf7f0" stroke="#2e8b57" stroke-width="1.5"/>
<g transform="translate(128.0,74)" fill="none" stroke="#005e96" stroke-width="2"><polygon points="12,0 24,6 24,18 12,24 0,18 0,6"/></g><text x="140.0" y="108.0" font-family="-apple-system,Segoe UI,Helvetica,Arial,sans-serif" font-size="15" font-weight="700" fill="#14212b" text-anchor="middle">MCP Server</text>
<text x="140.0" y="128.0" font-family="-apple-system,Segoe UI,Helvetica,Arial,sans-serif" font-size="11.5" fill="#5a6b78" text-anchor="middle">Tool: findLayer / queryFeatures</text>
</g>
<g>
<rect x="330" y="40" width="240" height="70" rx="12" fill="#ffffff" stroke="#dde3e8" stroke-width="1.5"/>
<text x="450.0" y="69.0" font-family="-apple-system,Segoe UI,Helvetica,Arial,sans-serif" font-size="15" font-weight="700" fill="#14212b" text-anchor="middle">Portal Token (generateToken)</text>
<text x="450.0" y="89.0" font-family="-apple-system,Segoe UI,Helvetica,Arial,sans-serif" font-size="11.5" fill="#5a6b78" text-anchor="middle">/portal/sharing/rest/generateToken</text>
</g>
<g>
<rect x="330" y="150" width="240" height="70" rx="12" fill="#ffffff" stroke="#dde3e8" stroke-width="1.5"/>
<text x="450.0" y="179.0" font-family="-apple-system,Segoe UI,Helvetica,Arial,sans-serif" font-size="15" font-weight="700" fill="#14212b" text-anchor="middle">Enterprise Portal Search</text>
<text x="450.0" y="199.0" font-family="-apple-system,Segoe UI,Helvetica,Arial,sans-serif" font-size="11.5" fill="#5a6b78" text-anchor="middle">/portal/sharing/rest/search</text>
</g>
<g>
<rect x="330" y="260" width="240" height="70" rx="12" fill="#ffffff" stroke="#dde3e8" stroke-width="1.5"/>
<text x="450.0" y="289.0" font-family="-apple-system,Segoe UI,Helvetica,Arial,sans-serif" font-size="15" font-weight="700" fill="#14212b" text-anchor="middle">Hosted / Map Service</text>
<text x="450.0" y="309.0" font-family="-apple-system,Segoe UI,Helvetica,Arial,sans-serif" font-size="11.5" fill="#5a6b78" text-anchor="middle">/server/rest/services/.../query</text>
</g>
<g>
<rect x="670" y="150" width="260" height="90" rx="12" fill="#eaf7f0" stroke="#2e8b57" stroke-width="1.5"/>
<g transform="translate(786.0,165)" fill="#2e8b57" opacity="0.9"><rect x="0" y="0" width="28" height="8" rx="2"/><rect x="0" y="10" width="28" height="8" rx="2"/><rect x="0" y="20" width="28" height="8" rx="2"/><circle cx="24" cy="4" r="1.4" fill="white"/><circle cx="24" cy="14" r="1.4" fill="white"/><circle cx="24" cy="24" r="1.4" fill="white"/></g><text x="800.0" y="203.0" font-family="-apple-system,Segoe UI,Helvetica,Arial,sans-serif" font-size="15" font-weight="700" fill="#14212b" text-anchor="middle">ArcGIS Enterprise</text>
<text x="800.0" y="223.0" font-family="-apple-system,Segoe UI,Helvetica,Arial,sans-serif" font-size="11.5" fill="#5a6b78" text-anchor="middle">On-prem / VPC portal + server</text>
</g>
<path d="M240,90 L330,75" fill="none" stroke="#2e8b57" stroke-width="2" marker-end="url(#arrowGreen)"/>
<rect x="178.2" y="61.5" width="213.6" height="18" fill="#f6f8fa"/>
<text x="285.0" y="74.5" font-family="-apple-system,Segoe UI,Helvetica,Arial,sans-serif" font-size="12" fill="#2e8b57" text-anchor="middle" font-weight="600">1. Authenticate (SAML/Basic)</text>
<path d="M240,110 Q280,150 330,175" fill="none" stroke="#2e8b57" stroke-width="2" marker-end="url(#arrowGreen)"/>
<rect x="230.8" y="127" width="98.4" height="18" fill="#f6f8fa"/>
<text x="280" y="140" font-family="-apple-system,Segoe UI,Helvetica,Arial,sans-serif" font-size="12" fill="#2e8b57" text-anchor="middle" font-weight="600">2. Find item</text>
<path d="M240,130 Q280,230 330,285" fill="none" stroke="#2e8b57" stroke-width="2" marker-end="url(#arrowGreen)"/>
<rect x="212.8" y="207" width="134.4" height="18" fill="#f6f8fa"/>
<text x="280" y="220" font-family="-apple-system,Segoe UI,Helvetica,Arial,sans-serif" font-size="12" fill="#2e8b57" text-anchor="middle" font-weight="600">3. Query features</text>
<path d="M570,75 Q620,110 670,170" fill="none" stroke="#5a6b78" stroke-width="2" stroke-dasharray="6,4" marker-end="url(#arrow)"/>
<path d="M570,185 L670,195" fill="none" stroke="#5a6b78" stroke-width="2" stroke-dasharray="6,4" marker-end="url(#arrow)"/>
<path d="M570,295 Q620,260 670,220" fill="none" stroke="#5a6b78" stroke-width="2" stroke-dasharray="6,4" marker-end="url(#arrow)"/>
<text x="40" y="380" font-family="-apple-system,Segoe UI,Helvetica,Arial,sans-serif" font-size="12.5" fill="#5a6b78">Requires VPN / private network reachability from the MCP host to the Enterprise portal + server.</text></svg>
