<svg xmlns="http://www.w3.org/2000/svg" viewBox="0 0 900 420" width="900" height="420" role="img" aria-label="5 · Dual-Environment Routing (AGOL + Enterprise)">
<rect x="0" y="0" width="900" height="420" fill="#f6f8fa"/>
<defs>
  <marker id="arrow" viewBox="0 0 10 10" refX="9" refY="5" markerWidth="8" markerHeight="8" orient="auto-start-reverse">
    <path d="M0,0 L10,5 L0,10 z" fill="#5a6b78"/>
  </marker>
  <marker id="arrowBlue" viewBox="0 0 10 10" refX="9" refY="5" markerWidth="8" markerHeight="8" orient="auto-start-reverse">
    <path d="M0,0 L10,5 L0,10 z" fill="#0079c1"/>
  </marker>
  <marker id="arrowGreen" viewBox="0 0 10 10" refX="9" refY="5" markerWidth="8" markerHeight="8" orient="auto-start-reverse">
    <path d="M0,0 L10,5 L0,10 z" fill="#2e8b57"/>
  </marker>
</defs>
<text x="24" y="34" font-family="-apple-system,Segoe UI,Helvetica,Arial,sans-serif" font-size="20" font-weight="700" fill="#14212b">5 · Dual-Environment Routing (AGOL + Enterprise)</text>
<g>
<rect x="40" y="165" width="200" height="90" rx="12" fill="#fff7ea" stroke="#c17a00" stroke-width="1.5"/>
<g transform="translate(128.0,179)" fill="none" stroke="#005e96" stroke-width="2"><polygon points="12,0 24,6 24,18 12,24 0,18 0,6"/></g><text x="140.0" y="218.0" font-family="-apple-system,Segoe UI,Helvetica,Arial,sans-serif" font-size="15" font-weight="700" fill="#14212b" text-anchor="middle">MCP Router</text>
<text x="140.0" y="238.0" font-family="-apple-system,Segoe UI,Helvetica,Arial,sans-serif" font-size="11.5" fill="#5a6b78" text-anchor="middle">Reads ENV.target per request</text>
</g>
<g>
<rect x="330" y="60" width="220" height="90" rx="12" fill="#eaf4fb" stroke="#0079c1" stroke-width="1.5"/>
<g transform="translate(424.0,76)" fill="#0079c1" opacity="0.85"><circle cx="10" cy="12" r="9"/><circle cx="20" cy="8" r="11"/><circle cx="30" cy="13" r="8"/><rect x="6" y="12" width="28" height="10" rx="5"/></g><text x="440.0" y="113.0" font-family="-apple-system,Segoe UI,Helvetica,Arial,sans-serif" font-size="15" font-weight="700" fill="#14212b" text-anchor="middle">AGOL Adapter</text>
<text x="440.0" y="133.0" font-family="-apple-system,Segoe UI,Helvetica,Arial,sans-serif" font-size="11.5" fill="#5a6b78" text-anchor="middle">OAuth2 · REST · cloud</text>
</g>
<g>
<rect x="330" y="270" width="220" height="90" rx="12" fill="#eaf7f0" stroke="#2e8b57" stroke-width="1.5"/>
<g transform="translate(426.0,285)" fill="#2e8b57" opacity="0.9"><rect x="0" y="0" width="28" height="8" rx="2"/><rect x="0" y="10" width="28" height="8" rx="2"/><rect x="0" y="20" width="28" height="8" rx="2"/><circle cx="24" cy="4" r="1.4" fill="white"/><circle cx="24" cy="14" r="1.4" fill="white"/><circle cx="24" cy="24" r="1.4" fill="white"/></g><text x="440.0" y="323.0" font-family="-apple-system,Segoe UI,Helvetica,Arial,sans-serif" font-size="15" font-weight="700" fill="#14212b" text-anchor="middle">Enterprise Adapter</text>
<text x="440.0" y="343.0" font-family="-apple-system,Segoe UI,Helvetica,Arial,sans-serif" font-size="11.5" fill="#5a6b78" text-anchor="middle">Token auth · REST · on-prem</text>
</g>
<g>
<rect x="630" y="60" width="220" height="90" rx="12" fill="#ffffff" stroke="#dde3e8" stroke-width="1.5"/>
<text x="740.0" y="99.0" font-family="-apple-system,Segoe UI,Helvetica,Arial,sans-serif" font-size="15" font-weight="700" fill="#14212b" text-anchor="middle">ArcGIS Online</text>
<text x="740.0" y="119.0" font-family="-apple-system,Segoe UI,Helvetica,Arial,sans-serif" font-size="11.5" fill="#5a6b78" text-anchor="middle">org: sfgov.maps.arcgis.com</text>
</g>
<g>
<rect x="630" y="270" width="220" height="90" rx="12" fill="#ffffff" stroke="#dde3e8" stroke-width="1.5"/>
<text x="740.0" y="309.0" font-family="-apple-system,Segoe UI,Helvetica,Arial,sans-serif" font-size="15" font-weight="700" fill="#14212b" text-anchor="middle">ArcGIS Enterprise</text>
<text x="740.0" y="329.0" font-family="-apple-system,Segoe UI,Helvetica,Arial,sans-serif" font-size="11.5" fill="#5a6b78" text-anchor="middle">internal portal</text>
</g>
<path d="M240,190 Q290,140 330,110" fill="none" stroke="#0079c1" stroke-width="2" marker-end="url(#arrowBlue)"/>
<rect x="244.4" y="117" width="91.2" height="18" fill="#f6f8fa"/>
<text x="290" y="130" font-family="-apple-system,Segoe UI,Helvetica,Arial,sans-serif" font-size="12" fill="#0079c1" text-anchor="middle" font-weight="600">target=agol</text>
<path d="M240,230 Q290,270 330,310" fill="none" stroke="#2e8b57" stroke-width="2" marker-end="url(#arrowGreen)"/>
<rect x="222.8" y="247" width="134.4" height="18" fill="#f6f8fa"/>
<text x="290" y="260" font-family="-apple-system,Segoe UI,Helvetica,Arial,sans-serif" font-size="12" fill="#2e8b57" text-anchor="middle" font-weight="600">target=enterprise</text>
<path d="M550,105 L630,105" fill="none" stroke="#0079c1" stroke-width="2" marker-end="url(#arrowBlue)"/>
<path d="M550,315 L630,315" fill="none" stroke="#2e8b57" stroke-width="2" marker-end="url(#arrowGreen)"/>
<text x="40" y="130" font-family="-apple-system,Segoe UI,Helvetica,Arial,sans-serif" font-size="12.5" fill="#5a6b78">A single tool call fans out to the correct environment via a config flag or per-request parameter.</text></svg>
