<svg xmlns="http://www.w3.org/2000/svg" viewBox="0 0 460 460" width="460" height="460" role="img" aria-label="9 · Unified GIS Data Flow">
<rect x="0" y="0" width="460" height="460" fill="#f6f8fa"/>
<defs>
  <marker id="arrow" viewBox="0 0 10 10" refX="9" refY="5" markerWidth="8" markerHeight="8" orient="auto-start-reverse">
    <path d="M0,0 L10,5 L0,10 z" fill="#5a6b78"/>
  </marker>
  <marker id="arrowBlue" viewBox="0 0 10 10" refX="9" refY="5" markerWidth="8" markerHeight="8" orient="auto-start-reverse">
    <path d="M0,0 L10,5 L0,10 z" fill="#0079c1"/>
  </marker>
  <marker id="arrowGreen" viewBox="0 0 10 10" refX="9" refY="5" markerWidth="8" markerHeight="8" orient="auto-start-reverse">
    <path d="M0,0 L10,5 L0,10 z" fill="#2e8b57"/>
  </marker>
</defs>
<text x="24" y="34" font-family="-apple-system,Segoe UI,Helvetica,Arial,sans-serif" font-size="20" font-weight="700" fill="#14212b">9 · Unified GIS Data Flow</text>
<g>
<rect x="140" y="190" width="180" height="80" rx="12" fill="#eaf4fb" stroke="#0079c1" stroke-width="1.5"/>
<g transform="translate(218.0,204)" fill="none" stroke="#005e96" stroke-width="2"><polygon points="12,0 24,6 24,18 12,24 0,18 0,6"/></g><text x="230.0" y="238.0" font-family="-apple-system,Segoe UI,Helvetica,Arial,sans-serif" font-size="15" font-weight="700" fill="#14212b" text-anchor="middle">MCP Server</text>
<text x="230.0" y="258.0" font-family="-apple-system,Segoe UI,Helvetica,Arial,sans-serif" font-size="11.5" fill="#5a6b78" text-anchor="middle">Unified data layer</text>
</g>
<g>
<rect x="150" y="25" width="160" height="70" rx="12" fill="#ffffff" stroke="#dde3e8" stroke-width="1.5"/>
<g transform="translate(222.0,39)" fill="#14212b" opacity="0.75"><circle cx="8" cy="6" r="6"/><path d="M0,26 Q8,12 16,26 Z"/></g><text x="230.0" y="76.0" font-family="-apple-system,Segoe UI,Helvetica,Arial,sans-serif" font-size="15" font-weight="700" fill="#14212b" text-anchor="middle">Microsoft Copilot</text>
</g>
<g>
<rect x="320" y="135" width="160" height="70" rx="12" fill="#ffffff" stroke="#dde3e8" stroke-width="1.5"/>
<g transform="translate(384.0,151)" fill="#0079c1" opacity="0.85"><circle cx="10" cy="12" r="9"/><circle cx="20" cy="8" r="11"/><circle cx="30" cy="13" r="8"/><rect x="6" y="12" width="28" height="10" rx="5"/></g><text x="400.0" y="186.0" font-family="-apple-system,Segoe UI,Helvetica,Arial,sans-serif" font-size="15" font-weight="700" fill="#14212b" text-anchor="middle">ArcGIS Online</text>
</g>
<g>
<rect x="320" y="295" width="160" height="70" rx="12" fill="#ffffff" stroke="#dde3e8" stroke-width="1.5"/>
<g transform="translate(386.0,310)" fill="#2e8b57" opacity="0.9"><rect x="0" y="0" width="28" height="8" rx="2"/><rect x="0" y="10" width="28" height="8" rx="2"/><rect x="0" y="20" width="28" height="8" rx="2"/><circle cx="24" cy="4" r="1.4" fill="white"/><circle cx="24" cy="14" r="1.4" fill="white"/><circle cx="24" cy="24" r="1.4" fill="white"/></g><text x="400.0" y="346.0" font-family="-apple-system,Segoe UI,Helvetica,Arial,sans-serif" font-size="15" font-weight="700" fill="#14212b" text-anchor="middle">ArcGIS Enterprise</text>
</g>
<g>
<rect x="-20" y="295" width="160" height="70" rx="12" fill="#ffffff" stroke="#dde3e8" stroke-width="1.5"/>
<g transform="translate(46.0,310)" fill="#2e8b57" opacity="0.9"><rect x="0" y="0" width="28" height="8" rx="2"/><rect x="0" y="10" width="28" height="8" rx="2"/><rect x="0" y="20" width="28" height="8" rx="2"/><circle cx="24" cy="4" r="1.4" fill="white"/><circle cx="24" cy="14" r="1.4" fill="white"/><circle cx="24" cy="24" r="1.4" fill="white"/></g><text x="60.0" y="346.0" font-family="-apple-system,Segoe UI,Helvetica,Arial,sans-serif" font-size="15" font-weight="700" fill="#14212b" text-anchor="middle">webTMA / Snowflake</text>
</g>
<g>
<rect x="-20" y="135" width="160" height="70" rx="12" fill="#ffffff" stroke="#dde3e8" stroke-width="1.5"/>
<g transform="translate(52.0,149)" fill="#14212b" opacity="0.75"><circle cx="8" cy="6" r="6"/><path d="M0,26 Q8,12 16,26 Z"/></g><text x="60.0" y="186.0" font-family="-apple-system,Segoe UI,Helvetica,Arial,sans-serif" font-size="15" font-weight="700" fill="#14212b" text-anchor="middle">Survey123 Data</text>
</g>
<path d="M230,130 L230,190" fill="none" stroke="#0079c1" stroke-width="2" marker-end="url(#arrowBlue)"/>
<path d="M320,210 L330,210" fill="none" stroke="#0079c1" stroke-width="2" marker-end="url(#arrowBlue)"/>
<path d="M320,250 L330,290" fill="none" stroke="#2e8b57" stroke-width="2" marker-end="url(#arrowGreen)"/>
<path d="M140,250 L130,290" fill="none" stroke="#2e8b57" stroke-width="2" marker-end="url(#arrowGreen)"/>
<path d="M140,210 L130,210" fill="none" stroke="#0079c1" stroke-width="2" marker-end="url(#arrowBlue)"/>
<text x="20" y="440" font-family="-apple-system,Segoe UI,Helvetica,Arial,sans-serif" font-size="12" fill="#5a6b78">MCP Server acts as the single integration point across cloud and on-prem GIS sources.</text></svg>
