<svg xmlns="http://www.w3.org/2000/svg" viewBox="0 0 1000 320" width="1000" height="320" role="img" aria-label="10 · Authentication &amp; Token Flow">
<rect x="0" y="0" width="1000" height="320" fill="#f6f8fa"/>
<defs>
  <marker id="arrow" viewBox="0 0 10 10" refX="9" refY="5" markerWidth="8" markerHeight="8" orient="auto-start-reverse">
    <path d="M0,0 L10,5 L0,10 z" fill="#5a6b78"/>
  </marker>
  <marker id="arrowBlue" viewBox="0 0 10 10" refX="9" refY="5" markerWidth="8" markerHeight="8" orient="auto-start-reverse">
    <path d="M0,0 L10,5 L0,10 z" fill="#0079c1"/>
  </marker>
  <marker id="arrowGreen" viewBox="0 0 10 10" refX="9" refY="5" markerWidth="8" markerHeight="8" orient="auto-start-reverse">
    <path d="M0,0 L10,5 L0,10 z" fill="#2e8b57"/>
  </marker>
</defs>
<text x="24" y="34" font-family="-apple-system,Segoe UI,Helvetica,Arial,sans-serif" font-size="20" font-weight="700" fill="#14212b">10 · Authentication &amp; Token Flow</text>
<g>
<rect x="30" y="110" width="190" height="90" rx="12" fill="#ffffff" stroke="#dde3e8" stroke-width="1.5"/>
<g transform="translate(113.0,124)" fill="none" stroke="#005e96" stroke-width="2"><polygon points="12,0 24,6 24,18 12,24 0,18 0,6"/></g><text x="125.0" y="163.0" font-family="-apple-system,Segoe UI,Helvetica,Arial,sans-serif" font-size="15" font-weight="700" fill="#14212b" text-anchor="middle">MCP Server</text>
<text x="125.0" y="183.0" font-family="-apple-system,Segoe UI,Helvetica,Arial,sans-serif" font-size="11.5" fill="#5a6b78" text-anchor="middle">Requests + caches token</text>
</g>
<g>
<rect x="280" y="60" width="210" height="80" rx="12" fill="#eaf4fb" stroke="#0079c1" stroke-width="1.5"/>
<g transform="translate(376.0,76)" fill="none" stroke="#c17a00" stroke-width="2"><rect x="1" y="9" width="16" height="12" rx="2"/><path d="M4,9 V6 a5,5 0 0 1 10,0 v3"/></g><text x="385.0" y="108.0" font-family="-apple-system,Segoe UI,Helvetica,Arial,sans-serif" font-size="15" font-weight="700" fill="#14212b" text-anchor="middle">AGOL OAuth2</text>
<text x="385.0" y="128.0" font-family="-apple-system,Segoe UI,Helvetica,Arial,sans-serif" font-size="11.5" fill="#5a6b78" text-anchor="middle">client_credentials grant</text>
</g>
<g>
<rect x="280" y="180" width="210" height="80" rx="12" fill="#eaf7f0" stroke="#2e8b57" stroke-width="1.5"/>
<g transform="translate(376.0,196)" fill="none" stroke="#c17a00" stroke-width="2"><rect x="1" y="9" width="16" height="12" rx="2"/><path d="M4,9 V6 a5,5 0 0 1 10,0 v3"/></g><text x="385.0" y="228.0" font-family="-apple-system,Segoe UI,Helvetica,Arial,sans-serif" font-size="15" font-weight="700" fill="#14212b" text-anchor="middle">Enterprise generateToken</text>
<text x="385.0" y="248.0" font-family="-apple-system,Segoe UI,Helvetica,Arial,sans-serif" font-size="11.5" fill="#5a6b78" text-anchor="middle">username/password or SAML</text>
</g>
<g>
<rect x="560" y="110" width="190" height="90" rx="12" fill="#ffffff" stroke="#dde3e8" stroke-width="1.5"/>
<text x="655.0" y="149.0" font-family="-apple-system,Segoe UI,Helvetica,Arial,sans-serif" font-size="15" font-weight="700" fill="#14212b" text-anchor="middle">Token Cache</text>
<text x="655.0" y="169.0" font-family="-apple-system,Segoe UI,Helvetica,Arial,sans-serif" font-size="11.5" fill="#5a6b78" text-anchor="middle">In-memory, TTL-based
refresh before expiry</text>
</g>
<g>
<rect x="810" y="110" width="160" height="90" rx="12" fill="#ffffff" stroke="#dde3e8" stroke-width="1.5"/>
<text x="890.0" y="149.0" font-family="-apple-system,Segoe UI,Helvetica,Arial,sans-serif" font-size="15" font-weight="700" fill="#14212b" text-anchor="middle">REST Calls</text>
<text x="890.0" y="169.0" font-family="-apple-system,Segoe UI,Helvetica,Arial,sans-serif" font-size="11.5" fill="#5a6b78" text-anchor="middle">Authorization: Bearer {token}</text>
</g>
<path d="M220,140 L280,100" fill="none" stroke="#0079c1" stroke-width="2" marker-end="url(#arrowBlue)"/>
<rect x="197.2" y="99.0" width="105.60000000000001" height="18" fill="#f6f8fa"/>
<text x="250.0" y="112.0" font-family="-apple-system,Segoe UI,Helvetica,Arial,sans-serif" font-size="12" fill="#0079c1" text-anchor="middle" font-weight="600">request token</text>
<path d="M220,160 L280,220" fill="none" stroke="#2e8b57" stroke-width="2" marker-end="url(#arrowGreen)"/>
<rect x="197.2" y="169.0" width="105.60000000000001" height="18" fill="#f6f8fa"/>
<text x="250.0" y="182.0" font-family="-apple-system,Segoe UI,Helvetica,Arial,sans-serif" font-size="12" fill="#2e8b57" text-anchor="middle" font-weight="600">request token</text>
<path d="M490,100 L560,140" fill="none" stroke="#0079c1" stroke-width="2" stroke-dasharray="6,4" marker-end="url(#arrow)"/>
<path d="M490,220 L560,170" fill="none" stroke="#2e8b57" stroke-width="2" stroke-dasharray="6,4" marker-end="url(#arrow)"/>
<path d="M750,155 L810,155" fill="none" stroke="#5a6b78" stroke-width="2" marker-end="url(#arrow)"/>
<text x="30" y="290" font-family="-apple-system,Segoe UI,Helvetica,Arial,sans-serif" font-size="12.5" fill="#5a6b78">Tokens are never exposed to Copilot Studio — only the MCP server holds credentials.</text></svg>
