<svg xmlns="http://www.w3.org/2000/svg" viewBox="0 0 1040 460" width="1040" height="460" role="img" aria-label="1 · MCP Architecture">
<rect x="0" y="0" width="1040" height="460" fill="#f6f8fa"/>
<defs>
  <marker id="arrow" viewBox="0 0 10 10" refX="9" refY="5" markerWidth="8" markerHeight="8" orient="auto-start-reverse">
    <path d="M0,0 L10,5 L0,10 z" fill="#5a6b78"/>
  </marker>
  <marker id="arrowBlue" viewBox="0 0 10 10" refX="9" refY="5" markerWidth="8" markerHeight="8" orient="auto-start-reverse">
    <path d="M0,0 L10,5 L0,10 z" fill="#0079c1"/>
  </marker>
  <marker id="arrowGreen" viewBox="0 0 10 10" refX="9" refY="5" markerWidth="8" markerHeight="8" orient="auto-start-reverse">
    <path d="M0,0 L10,5 L0,10 z" fill="#2e8b57"/>
  </marker>
</defs>
<text x="24" y="34" font-family="-apple-system,Segoe UI,Helvetica,Arial,sans-serif" font-size="20" font-weight="700" fill="#14212b">1 · MCP Architecture</text>
<g>
<rect x="40" y="90" width="190" height="90" rx="12" fill="#ffffff" stroke="#dde3e8" stroke-width="1.5"/>
<g transform="translate(127.0,104)" fill="#14212b" opacity="0.75"><circle cx="8" cy="6" r="6"/><path d="M0,26 Q8,12 16,26 Z"/></g><text x="135.0" y="143.0" font-family="-apple-system,Segoe UI,Helvetica,Arial,sans-serif" font-size="15" font-weight="700" fill="#14212b" text-anchor="middle">Microsoft Copilot</text>
<text x="135.0" y="163.0" font-family="-apple-system,Segoe UI,Helvetica,Arial,sans-serif" font-size="11.5" fill="#5a6b78" text-anchor="middle">Natural-language client</text>
</g>
<g>
<rect x="280" y="90" width="190" height="90" rx="12" fill="#ffffff" stroke="#dde3e8" stroke-width="1.5"/>
<g transform="translate(363.0,104)" fill="none" stroke="#005e96" stroke-width="2"><polygon points="12,0 24,6 24,18 12,24 0,18 0,6"/></g><text x="375.0" y="143.0" font-family="-apple-system,Segoe UI,Helvetica,Arial,sans-serif" font-size="15" font-weight="700" fill="#14212b" text-anchor="middle">Copilot Studio</text>
<text x="375.0" y="163.0" font-family="-apple-system,Segoe UI,Helvetica,Arial,sans-serif" font-size="11.5" fill="#5a6b78" text-anchor="middle">Orchestration / agent runtime</text>
</g>
<g>
<rect x="520" y="170" width="220" height="110" rx="12" fill="#eaf4fb" stroke="#0079c1" stroke-width="1.5"/>
<g transform="translate(618.0,184)" fill="none" stroke="#005e96" stroke-width="2"><polygon points="12,0 24,6 24,18 12,24 0,18 0,6"/></g><text x="630.0" y="233.0" font-family="-apple-system,Segoe UI,Helvetica,Arial,sans-serif" font-size="15" font-weight="700" fill="#14212b" text-anchor="middle">MCP Server</text>
<text x="630.0" y="253.0" font-family="-apple-system,Segoe UI,Helvetica,Arial,sans-serif" font-size="11.5" fill="#5a6b78" text-anchor="middle">Node.js + Python tool host</text>
</g>
<g>
<rect x="800" y="90" width="200" height="90" rx="12" fill="#eaf4fb" stroke="#0079c1" stroke-width="1.5"/>
<g transform="translate(884.0,106)" fill="#0079c1" opacity="0.85"><circle cx="10" cy="12" r="9"/><circle cx="20" cy="8" r="11"/><circle cx="30" cy="13" r="8"/><rect x="6" y="12" width="28" height="10" rx="5"/></g><text x="900.0" y="143.0" font-family="-apple-system,Segoe UI,Helvetica,Arial,sans-serif" font-size="15" font-weight="700" fill="#14212b" text-anchor="middle">ArcGIS Online</text>
<text x="900.0" y="163.0" font-family="-apple-system,Segoe UI,Helvetica,Arial,sans-serif" font-size="11.5" fill="#5a6b78" text-anchor="middle">Cloud REST API</text>
</g>
<g>
<rect x="800" y="260" width="200" height="90" rx="12" fill="#eaf7f0" stroke="#2e8b57" stroke-width="1.5"/>
<g transform="translate(886.0,275)" fill="#2e8b57" opacity="0.9"><rect x="0" y="0" width="28" height="8" rx="2"/><rect x="0" y="10" width="28" height="8" rx="2"/><rect x="0" y="20" width="28" height="8" rx="2"/><circle cx="24" cy="4" r="1.4" fill="white"/><circle cx="24" cy="14" r="1.4" fill="white"/><circle cx="24" cy="24" r="1.4" fill="white"/></g><text x="900.0" y="313.0" font-family="-apple-system,Segoe UI,Helvetica,Arial,sans-serif" font-size="15" font-weight="700" fill="#14212b" text-anchor="middle">ArcGIS Enterprise</text>
<text x="900.0" y="333.0" font-family="-apple-system,Segoe UI,Helvetica,Arial,sans-serif" font-size="11.5" fill="#5a6b78" text-anchor="middle">On-prem REST API</text>
</g>
<path d="M230,135 L280,135" fill="none" stroke="#0079c1" stroke-width="2" marker-end="url(#arrowBlue)"/>
<rect x="213.0" y="114.0" width="84.0" height="18" fill="#f6f8fa"/>
<text x="255.0" y="127.0" font-family="-apple-system,Segoe UI,Helvetica,Arial,sans-serif" font-size="12" fill="#0079c1" text-anchor="middle" font-weight="600">NL request</text>
<path d="M470,135 Q500,150 520,200" fill="none" stroke="#0079c1" stroke-width="2" marker-end="url(#arrowBlue)"/>
<rect x="440.0" y="127" width="120.0" height="18" fill="#f6f8fa"/>
<text x="500" y="140" font-family="-apple-system,Segoe UI,Helvetica,Arial,sans-serif" font-size="12" fill="#0079c1" text-anchor="middle" font-weight="600">Tool invocation</text>
<path d="M740,220 Q770,170 800,150" fill="none" stroke="#0079c1" stroke-width="2" marker-end="url(#arrowBlue)"/>
<rect x="731.6" y="147" width="76.8" height="18" fill="#f6f8fa"/>
<text x="770" y="160" font-family="-apple-system,Segoe UI,Helvetica,Arial,sans-serif" font-size="12" fill="#0079c1" text-anchor="middle" font-weight="600">REST call</text>
<path d="M740,245 Q770,260 800,300" fill="none" stroke="#2e8b57" stroke-width="2" marker-end="url(#arrowGreen)"/>
<rect x="731.6" y="237" width="76.8" height="18" fill="#f6f8fa"/>
<text x="770" y="250" font-family="-apple-system,Segoe UI,Helvetica,Arial,sans-serif" font-size="12" fill="#2e8b57" text-anchor="middle" font-weight="600">REST call</text>
<path d="M800,170 Q775,200 745,235" fill="none" stroke="#5a6b78" stroke-width="2" stroke-dasharray="6,4" marker-end="url(#arrow)"/>
<rect x="722.2" y="177" width="105.60000000000001" height="18" fill="#f6f8fa"/>
<text x="775" y="190" font-family="-apple-system,Segoe UI,Helvetica,Arial,sans-serif" font-size="12" fill="#5a6b78" text-anchor="middle" font-weight="600">JSON response</text>
<path d="M800,320 Q775,300 745,260" fill="none" stroke="#5a6b78" stroke-width="2" stroke-dasharray="6,4" marker-end="url(#arrow)"/>
<rect x="722.2" y="277" width="105.60000000000001" height="18" fill="#f6f8fa"/>
<text x="775" y="290" font-family="-apple-system,Segoe UI,Helvetica,Arial,sans-serif" font-size="12" fill="#5a6b78" text-anchor="middle" font-weight="600">JSON response</text>
<text x="40" y="410" font-family="-apple-system,Segoe UI,Helvetica,Arial,sans-serif" font-size="12.5" fill="#5a6b78">Copilot Studio calls MCP tools (findLayer, queryFeatures) which route to the correct ArcGIS environment based on config.</text></svg>
